<svg width="40" height="40" viewBox="0 0 40 40" fill="none" xmlns="http://www.w3.org/2000/svg">
<path d="M0 20C0 8.9543 8.9543 0 20 0C31.0457 0 40 8.9543 40 20C40 31.0457 31.0457 40 20 40C8.9543 40 0 31.0457 0 20Z" fill="white"/>
<mask id="mask0_39:2949" style="mask-type:alpha" maskUnits="userSpaceOnUse" x="0" y="0" width="40" height="40">
<path fill-rule="evenodd" clip-rule="evenodd" d="M0 20C0 8.9543 8.9543 0 20 0C31.0457 0 40 8.9543 40 20C40 31.0457 31.0457 40 20 40C8.9543 40 0 31.0457 0 20Z" fill="white"/>
</mask>
<g mask="url(#mask0_39:2949)">
<path fill-rule="evenodd" clip-rule="evenodd" d="M20.001 9.33301C17.1041 9.33301 16.7406 9.34567 15.6028 9.39745C14.4672 9.44945 13.6921 9.62923 13.0139 9.89301C12.3123 10.1655 11.7172 10.5299 11.1243 11.123C10.5309 11.7159 10.1665 12.311 9.89316 13.0124C9.62871 13.6908 9.44871 14.4662 9.3976 15.6013C9.34671 16.7391 9.33337 17.1029 9.33337 19.9998C9.33337 22.8967 9.34626 23.2592 9.39782 24.3969C9.45004 25.5325 9.62982 26.3076 9.89338 26.9859C10.166 27.6874 10.5305 28.2825 11.1236 28.8754C11.7163 29.4688 12.3114 29.8341 13.0125 30.1066C13.6912 30.3703 14.4665 30.5501 15.6019 30.6021C16.7397 30.6539 17.103 30.6666 19.9997 30.6666C22.8968 30.6666 23.2593 30.6539 24.3971 30.6021C25.5327 30.5501 26.3087 30.3703 26.9873 30.1066C27.6887 29.8341 28.2829 29.4688 28.8756 28.8754C29.4689 28.2825 29.8334 27.6874 30.1067 26.9861C30.3689 26.3076 30.5489 25.5323 30.6023 24.3972C30.6534 23.2594 30.6667 22.8967 30.6667 19.9998C30.6667 17.1029 30.6534 16.7393 30.6023 15.6015C30.5489 14.466 30.3689 13.6908 30.1067 13.0126C29.8334 12.311 29.4689 11.7159 28.8756 11.123C28.2822 10.5297 27.6889 10.1652 26.9867 9.89301C26.3067 9.62923 25.5311 9.44945 24.3955 9.39745C23.2577 9.34567 22.8955 9.33301 19.9977 9.33301H20.001ZM19.0441 11.2552C19.2299 11.2549 19.4298 11.255 19.6455 11.2551L20.001 11.2552C22.849 11.2552 23.1866 11.2654 24.3113 11.3165C25.3513 11.3641 25.9157 11.5378 26.2918 11.6838C26.7895 11.8772 27.1444 12.1083 27.5175 12.4816C27.8909 12.855 28.122 13.2105 28.3158 13.7083C28.4618 14.0839 28.6358 14.6483 28.6831 15.6883C28.7342 16.8128 28.7453 17.1506 28.7453 19.9973C28.7453 22.844 28.7342 23.1817 28.6831 24.3062C28.6356 25.3462 28.4618 25.9107 28.3158 26.2862C28.1224 26.784 27.8909 27.1384 27.5175 27.5116C27.1442 27.8849 26.7898 28.116 26.2918 28.3094C25.9162 28.456 25.3513 28.6294 24.3113 28.6769C23.1868 28.728 22.849 28.7391 20.001 28.7391C17.1528 28.7391 16.8152 28.728 15.6907 28.6769C14.6507 28.6289 14.0863 28.4551 13.7101 28.3091C13.2123 28.1158 12.8567 27.8847 12.4834 27.5113C12.11 27.138 11.8789 26.7833 11.6852 26.2853C11.5391 25.9098 11.3651 25.3453 11.3178 24.3053C11.2667 23.1809 11.2565 22.8431 11.2565 19.9946C11.2565 17.1461 11.2667 16.8101 11.3178 15.6857C11.3654 14.6457 11.5391 14.0812 11.6852 13.7052C11.8785 13.2074 12.11 12.8519 12.4834 12.4785C12.8567 12.1052 13.2123 11.8741 13.7101 11.6803C14.0861 11.5336 14.6507 11.3603 15.6907 11.3125C16.6748 11.2681 17.0561 11.2547 19.0441 11.2525V11.2552ZM24.4148 14.306C24.4148 13.5992 24.9882 13.0265 25.6949 13.0265V13.026C26.4015 13.026 26.9749 13.5994 26.9749 14.306C26.9749 15.0127 26.4015 15.5861 25.6949 15.5861C24.9882 15.5861 24.4148 15.0127 24.4148 14.306ZM20.0009 14.522C16.9758 14.5221 14.5233 16.9748 14.5233 19.9999C14.5233 23.025 16.976 25.4766 20.0011 25.4766C23.0262 25.4766 25.478 23.025 25.478 19.9999C25.478 16.9747 23.026 14.522 20.0009 14.522ZM23.5567 19.9999C23.5567 18.0361 21.9647 16.4443 20.0011 16.4443C18.0373 16.4443 16.4455 18.0361 16.4455 19.9999C16.4455 21.9634 18.0373 23.5555 20.0011 23.5555C21.9647 23.5555 23.5567 21.9634 23.5567 19.9999Z" fill="#181A20"/>
</g>
</svg>
