<svg width="40" height="40" viewBox="0 0 40 40" fill="none" xmlns="http://www.w3.org/2000/svg">
<path d="M0 20C0 8.9543 8.9543 0 20 0C31.0457 0 40 8.9543 40 20C40 31.0457 31.0457 40 20 40C8.9543 40 0 31.0457 0 20Z" fill="white"/>
<path fill-rule="evenodd" clip-rule="evenodd" d="M14.4323 12.3522C14.4323 13.6598 13.4481 14.7061 11.8677 14.7061H11.8387C10.3171 14.7061 9.33337 13.6598 9.33337 12.3522C9.33337 11.017 10.347 10 11.8976 10C13.4481 10 14.4029 11.017 14.4323 12.3522ZM14.1339 16.5648V30.1829H9.60147V16.5648H14.1339ZM30.4794 30.183L30.4796 22.3748C30.4796 18.1919 28.2436 16.2451 25.261 16.2451C22.8546 16.2451 21.7772 17.5669 21.1756 18.4941V16.5652H16.6427C16.7024 17.8431 16.6427 30.1833 16.6427 30.1833H21.1756V22.5779C21.1756 22.1709 21.2051 21.7649 21.3249 21.4735C21.6525 20.6604 22.3983 19.8185 23.6505 19.8185C25.2913 19.8185 25.9471 21.0673 25.9471 22.8973V30.183H30.4794Z" fill="#181A20"/>
</svg>
